<svg xmlns="http://www.w3.org/2000/svg" width="805" height="600"><rect width="805" height="600" x="0" y="0" fill="#FFFFFF" id="background"/><g transform="translate(402.5,300)" id="viz"><path fill="#1f77b4" display="" d="M0.9999920729479259,-142.9965035091909A143,143,0,0,1,43.23730074331618,-136.30677101461993L21.450551895695938,-69.25405275772715A72.5,72.5,0,0,0,0.9999920729479103,-72.49310322957655Z"><title>Katsuhiko Nishijima</title></path><path fill="#1f77b4" display="" d="M45.13939869775741,-135.68874192505766A143,143,0,0,1,115.09882088224407,-84.86024647334638L58.060371894816655,-43.419387552516035A72.5,72.5,0,0,0,23.352649850137148,-68.63602366816488Z"><title>Noriyuki Abe</title></path><path fill="#1f77b4" display="" d="M116.27438206802039,-83.24222531083619A143,143,0,0,1,45.13939869775741,135.68874192505766L23.352649850137148,68.63602366816488A72.5,72.5,0,0,0,59.23593308059297,-41.80136639000586Z"><title>Hayao Miyazaki</title></path><path fill="#1f77b4" display="" d="M43.23730074331618,136.30677101461993A143,143,0,0,1,0.9999920729479259,142.9965035091909L0.9999920729479103,72.49310322957655A72.5,72.5,0,0,0,21.450551895695938,69.25405275772715Z"><title>Ryūtarō Nakamura</title></path><path fill="#1f77b4" display="" d="M-0.9999920729479084,142.9965035091909A143,143,0,0,1,-43.23730074331617,136.30677101461993L-21.450551895695927,69.25405275772715A72.5,72.5,0,0,0,-0.9999920729479015,72.49310322957655Z"><title>Michael Arias</title></path><path fill="#1f77b4" display="" d="M-45.13939869775739,135.68874192505766A143,143,0,0,1,-115.09882088224406,84.8602464733464L-58.060371894816655,43.419387552516035A72.5,72.5,0,0,0,-23.352649850137137,68.63602366816488Z"><title>Hiroyuki Morita</title></path><path fill="#1f77b4" display="" d="M-116.27438206802039,83.24222531083619A143,143,0,0,1,-135.68874192505766,45.139398697757414L-68.63602366816488,23.352649850137134A72.5,72.5,0,0,0,-59.23593308059296,41.801366390005875Z"><title>Masahiko Murata</title></path><path fill="#1f77b4" display="" d="M-136.30677101461993,43.23730074331619A143,143,0,0,1,-116.2743820680204,-83.24222531083616L-59.235933080592964,-41.80136639000587A72.5,72.5,0,0,0,-69.25405275772715,21.450551895695956Z"><title>Hajime Kamegaki</title></path><path fill="#1f77b4" display="" d="M-115.09882088224407,-84.86024647334635A143,143,0,0,1,-84.86024647334634,-115.0988208822441L-43.419387552516056,-58.06037189481663A72.5,72.5,0,0,0,-58.06037189481666,-43.419387552516014Z"><title>Kunihiko Yuyama</title></path><path fill="#1f77b4" display="" d="M-83.24222531083626,-116.27438206802036A143,143,0,0,1,-45.13939869775737,-135.68874192505766L-23.35264985013717,-68.63602366816487A72.5,72.5,0,0,0,-41.80136639000586,-59.23593308059297Z"><title>Masami Hata</title></path><path fill="#1f77b4" display="" d="M-43.237300743316254,-136.3067710146199A143,143,0,0,1,-0.9999920729478798,-142.9965035091909L-0.9999920729479354,-72.49310322957655A72.5,72.5,0,0,0,-21.450551895695927,-69.25405275772715Z"><title>Makoto Shinkai</title></path><path fill="#1f77b4" display="" d="M0.999992072947919,-215.49767983867955A215.5,215.5,0,0,1,65.64139634130288,-205.25948720184408L43.85534963552755,-138.2089299153482A145,145,0,0,0,0.999992072947915,-144.99655173780528Z"><title>プロジェクトA子</title></path><path fill="#1f77b4" display="" d="M67.54349429574408,-204.64145811228178A215.5,215.5,0,0,1,125.85734753116579,-174.9290658307514L84.41782416348941,-117.89245507453894A145,145,0,0,0,45.757447589968756,-137.59090082578595Z"><title>Bleach: Hell Verse</title></path><path fill="#1f77b4" display="" d="M127.47536869367597,-173.7535046449751A215.5,215.5,0,0,1,173.7535046449751,-127.47536869367595L116.71689388876263,-86.03584532599959A145,145,0,0,0,86.0358453259996,-116.71689388876263Z"><title>劇場版BLEACH 地獄篇</title></path><path fill="#1f77b4" display="" d="M174.9290658307514,-125.85734753116579A215.5,215.5,0,0,1,174.9290658307514,125.85734753116579L117.89245507453894,84.41782416348941A145,145,0,0,0,117.89245507453894,-84.41782416348941Z"><title>ハウルの動く城</title></path><path fill="#1f77b4" display="" d="M173.7535046449751,127.47536869367595A215.5,215.5,0,0,1,67.54349429574408,204.64145811228178L45.757447589968756,137.59090082578595A145,145,0,0,0,116.71689388876263,86.03584532599959Z"><title>となりのトトロ</title></path><path fill="#1f77b4" display="" d="M65.64139634130288,205.25948720184408A215.5,215.5,0,0,1,0.999992072947919,215.49767983867955L0.999992072947915,144.99655173780528A145,145,0,0,0,43.85534963552755,138.2089299153482Z"><title>クリスタニア</title></path><path fill="#1f77b4" display="none" d="M-0.9999920729478926,215.49767983867955A215.5,215.5,0,0,1,-65.64139634130285,205.25948720184408L-43.85534963552753,138.20892991534822A145,145,0,0,0,-0.9999920729478974,144.99655173780528Z"><title/></path><path fill="#1f77b4" display="" d="M-67.54349429574405,204.6414581122818A215.5,215.5,0,0,1,-173.75350464497507,127.47536869367597L-116.71689388876264,86.03584532599957A145,145,0,0,0,-45.75744758996874,137.59090082578595Z"><title>猫の恩返し</title></path><path fill="#1f77b4" display="" d="M-174.9290658307514,125.85734753116581A215.5,215.5,0,0,1,-204.64145811228178,67.5434942957441L-137.59090082578595,45.757447589968734A145,145,0,0,0,-117.8924550745389,84.41782416348944Z"><title>劇場版 NARUTO-ナルト-疾風伝 ザ・ロストタワー</title></path><path fill="#1f77b4" display="" d="M-205.25948720184408,65.64139634130288A215.5,215.5,0,0,1,-174.92906583075143,-125.85734753116576L-117.89245507453894,-84.41782416348943A145,145,0,0,0,-138.2089299153482,43.85534963552759Z"><title>劇場版 NARUTO -ナルト- 疾風伝</title></path><path fill="#1f77b4" display="" d="M-173.7535046449751,-127.47536869367592A215.5,215.5,0,0,1,-127.47536869367599,-173.75350464497507L-86.03584532599959,-116.71689388876263A145,145,0,0,0,-116.71689388876266,-86.03584532599956Z"><title>劇場版ポケットモンスター セレビィ 時を超えた遭遇</title></path><path fill="#1f77b4" display="" d="M-125.85734753116581,-174.92906583075137A215.5,215.5,0,0,1,-67.54349429574411,-204.64145811228178L-45.75744758996874,-137.59090082578595A145,145,0,0,0,-84.41782416348947,-117.8924550745389Z"><title>スーパーマリオブラザーズ ピーチ姫救出大作戦!</title></path><path fill="#1f77b4" display="" d="M-65.6413963413029,-205.25948720184408A215.5,215.5,0,0,1,-0.9999920729479453,-215.49767983867955L-0.9999920729479006,-144.99655173780528A145,145,0,0,0,-43.855349635527595,-138.2089299153482Z"><title>秒速5センチメートル</title></path><path fill="#1f77b4" display="" d="M0.9999920729479248,-287.99826391118063A288,288,0,0,1,88.04530892181532,-274.2116401192008L66.2594369229437,-207.1616205252663A217.5,217.5,0,0,0,0.9999920729479188,-217.49770117372285Z"><title>1986-06-21T00:00:00Z</title></path><path fill="#1f77b4" display="" d="M89.94740687625655,-273.59361102963857A288,288,0,0,1,168.47212163157246,-233.5832704475144L127.03293057617454,-176.5471170799139A217.5,217.5,0,0,0,68.16153487738492,-206.54359143570406Z"><title>2010-12-04T00:00:00Z</title></path><path fill="#1f77b4" display="" d="M170.09014279408265,-232.4077092617381A288,288,0,0,1,232.4077092617381,-170.09014279408265L175.3715558941376,-128.6509517386847A217.5,217.5,0,0,0,128.6509517386847,-175.37155589413757Z"><title>2010-12-04T00:00:00Z</title></path><path fill="#1f77b4" display="" d="M233.5832704475144,-168.47212163157246A288,288,0,0,1,273.59361102963857,-89.94740687625654L206.54359143570406,-68.16153487738491A217.5,217.5,0,0,0,176.5471170799139,-127.03293057617454Z"><title>2004-09-05T00:00:00Z</title></path><path fill="#1f77b4" display="" d="M274.2116401192008,-88.0453089218153A288,288,0,0,1,287.99826391118063,-0.9999920729479042L217.49770117372285,-0.9999920729479042A217.5,217.5,0,0,0,207.1616205252663,-66.25943692294369Z"><title>2004-11-20T00:00:00Z</title></path><path fill="#1f77b4" display="" d="M287.99826391118063,0.9999920729479042A288,288,0,0,1,274.2116401192008,88.0453089218153L207.1616205252663,66.25943692294369A217.5,217.5,0,0,0,217.49770117372285,0.9999920729479042Z"><title>2005-06-17T00:00:00Z</title></path><path fill="#1f77b4" display="" d="M273.59361102963857,89.94740687625654A288,288,0,0,1,233.5832704475144,168.47212163157246L176.5471170799139,127.03293057617454A217.5,217.5,0,0,0,206.54359143570406,68.16153487738491Z"><title>2005-08-25T00:00:00Z</title></path><path fill="#1f77b4" display="" d="M232.4077092617381,170.09014279408265A288,288,0,0,1,170.09014279408265,232.4077092617381L128.6509517386847,175.37155589413757A217.5,217.5,0,0,0,175.3715558941376,128.6509517386847Z"><title>1988-04-16T00:00:00Z</title></path><path fill="#1f77b4" display="" d="M168.47212163157246,233.5832704475144A288,288,0,0,1,89.94740687625655,273.59361102963857L68.16153487738492,206.54359143570406A217.5,217.5,0,0,0,127.03293057617454,176.5471170799139Z"><title>1990-07-13T00:00:00Z</title></path><path fill="#1f77b4" display="" d="M88.04530892181532,274.2116401192008A288,288,0,0,1,0.9999920729479248,287.99826391118063L0.9999920729479188,217.49770117372285A217.5,217.5,0,0,0,66.2594369229437,207.1616205252663Z"><title>1995-07-29T00:00:00Z</title></path><path fill="#1f77b4" display="" d="M-0.9999920729478895,287.99826391118063A288,288,0,0,1,-88.04530892181529,274.2116401192008L-66.25943692294369,207.1616205252663A217.5,217.5,0,0,0,-0.999992072947892,217.49770117372285Z"><title>2015-11-13T00:00:00Z</title></path><path fill="#1f77b4" display="" d="M-89.94740687625651,273.59361102963857A288,288,0,0,1,-168.47212163157246,233.5832704475144L-127.03293057617455,176.54711707991387A217.5,217.5,0,0,0,-68.1615348773849,206.54359143570406Z"><title>2002-07-19T00:00:00Z</title></path><path fill="#1f77b4" display="" d="M-170.09014279408262,232.4077092617381A288,288,0,0,1,-232.40770926173803,170.09014279408265L-175.3715558941376,128.65095173868468A217.5,217.5,0,0,0,-128.65095173868465,175.3715558941376Z"><title>2005-07-13T00:00:00Z</title></path><path fill="#1f77b4" display="" d="M-233.58327044751437,168.4721216315725A288,288,0,0,1,-273.59361102963857,89.94740687625657L-206.54359143570406,68.16153487738488A217.5,217.5,0,0,0,-176.54711707991385,127.03293057617458Z"><title>2010-07-31T00:00:00Z</title></path><path fill="#1f77b4" display="" d="M-274.2116401192008,88.04530892181535A288,288,0,0,1,-287.99826391118063,0.9999920729479425L-217.49770117372285,0.9999920729478837A217.5,217.5,0,0,0,-207.1616205252663,66.25943692294378Z"><title>2007-01-01T00:00:00Z</title></path><path fill="#1f77b4" display="" d="M-287.99826391118063,-0.9999920729478718A288,288,0,0,1,-274.2116401192008,-88.04530892181528L-207.1616205252663,-66.25943692294372A217.5,217.5,0,0,0,-217.49770117372285,-0.9999920729478305Z"><title>2007-08-04T00:00:00Z</title></path><path fill="#1f77b4" display="" d="M-273.59361102963857,-89.9474068762565A288,288,0,0,1,-233.58327044751442,-168.47212163157243L-176.54711707991387,-127.03293057617454A217.5,217.5,0,0,0,-206.5435914357041,-68.16153487738484Z"><title>2016-06-20T00:00:00Z</title></path><path fill="#1f77b4" display="" d="M-232.40770926173812,-170.09014279408262A288,288,0,0,1,-170.09014279408268,-232.40770926173803L-128.65095173868477,-175.37155589413751A217.5,217.5,0,0,0,-175.3715558941376,-128.65095173868463Z"><title>2001-07-07T00:00:00Z</title></path><path fill="#1f77b4" display="" d="M-168.4721216315725,-233.58327044751437A288,288,0,0,1,-89.94740687625658,-273.5936110296385L-68.161534877385,-206.54359143570403A217.5,217.5,0,0,0,-127.03293057617451,-176.5471170799139Z"><title>1986-07-20T00:00:00Z</title></path><path fill="#1f77b4" display="" d="M-88.04530892181538,-274.2116401192008A288,288,0,0,1,-0.99999207294796,-287.99826391118063L-0.9999920729479937,-217.49770117372285A217.5,217.5,0,0,0,-66.25943692294369,-207.1616205252663Z"><title>2007-03-03T00:00:00Z</title></path></g><g id="labels" transform="translate(402.5,300)" text-anchor="middle"><text transform="rotate(90) translate(36.25,0) rotate(180)"><tspan x="0" y="4" style="font-family: Arial, sans-serif; font-size: 10px; fill: black; font-weight: normal; font-style: italic;"/></text><text transform="rotate(-81) translate(108.75,0) rotate(0)"><tspan x="0" y="4" style="font-family: Arial, sans-serif; font-size: 10px; fill: black; font-weight: normal; font-style: italic;">Katsuhiko Nishijima</tspan></text><text transform="rotate(-54) translate(108.75,0) rotate(0)"><tspan x="0" y="4" style="font-family: Arial, sans-serif; font-size: 10px; fill: black; font-weight: normal; font-style: italic;">Noriyuki Abe</tspan></text><text transform="rotate(18) translate(108.75,0) rotate(0)"><tspan x="0" y="4" style="font-family: Arial, sans-serif; font-size: 10px; fill: black; font-weight: normal; font-style: italic;">Hayao Miyazaki</tspan></text><text transform="rotate(81) translate(108.75,0) rotate(0)"><tspan x="0" y="4" style="font-family: Arial, sans-serif; font-size: 10px; fill: black; font-weight: normal; font-style: italic;">Ryūtarō Nakamura</tspan></text><text transform="rotate(99) translate(108.75,0) rotate(180)"><tspan x="0" y="4" style="font-family: Arial, sans-serif; font-size: 10px; fill: black; font-weight: normal; font-style: italic;">Michael Arias</tspan></text><text transform="rotate(126) translate(108.75,0) rotate(180)"><tspan x="0" y="4" style="font-family: Arial, sans-serif; font-size: 10px; fill: black; font-weight: normal; font-style: italic;">Hiroyuki Morita</tspan></text><text transform="rotate(153) translate(108.75,0) rotate(180)"><tspan x="0" y="4" style="font-family: Arial, sans-serif; font-size: 10px; fill: black; font-weight: normal; font-style: italic;">Masahiko Murata</tspan></text><text transform="rotate(189) translate(108.75,0) rotate(180)"><tspan x="0" y="4" style="font-family: Arial, sans-serif; font-size: 10px; fill: black; font-weight: normal; font-style: italic;">Hajime Kamegaki</tspan></text><text transform="rotate(225) translate(108.75,0) rotate(180)"><tspan x="0" y="4" style="font-family: Arial, sans-serif; font-size: 10px; fill: black; font-weight: normal; font-style: italic;">Kunihiko Yuyama</tspan></text><text transform="rotate(243) translate(108.75,0) rotate(180)"><tspan x="0" y="4" style="font-family: Arial, sans-serif; font-size: 10px; fill: black; font-weight: normal; font-style: italic;">Masami Hata</tspan></text><text transform="rotate(261) translate(108.75,0) rotate(180)"><tspan x="0" y="4" style="font-family: Arial, sans-serif; font-size: 10px; fill: black; font-weight: normal; font-style: italic;">Makoto Shinkai</tspan></text><text transform="rotate(-81) translate(181.25,0) rotate(0)"><tspan x="0" y="4" style="font-family: Arial, sans-serif; font-size: 10px; fill: black; font-weight: normal; font-style: italic;">プロジェクトA子</tspan></text><text transform="rotate(-63) translate(181.25,0) rotate(0)"><tspan x="0" y="4" style="font-family: Arial, sans-serif; font-size: 10px; fill: black; font-weight: normal; font-style: italic;">Bleach: Hell Verse</tspan></text><text transform="rotate(-45) translate(181.25,0) rotate(0)"><tspan x="0" y="4" style="font-family: Arial, sans-serif; font-size: 10px; fill: black; font-weight: normal; font-style: italic;">劇場版BLEACH 地獄篇</tspan></text><text transform="rotate(0) translate(181.25,0) rotate(0)"><tspan x="0" y="4" style="font-family: Arial, sans-serif; font-size: 10px; fill: black; font-weight: normal; font-style: italic;">ハウルの動く城</tspan></text><text transform="rotate(54) translate(181.25,0) rotate(0)"><tspan x="0" y="4" style="font-family: Arial, sans-serif; font-size: 10px; fill: black; font-weight: normal; font-style: italic;">となりのトトロ</tspan></text><text transform="rotate(81) translate(181.25,0) rotate(0)"><tspan x="0" y="4" style="font-family: Arial, sans-serif; font-size: 10px; fill: black; font-weight: normal; font-style: italic;">クリスタニア</tspan></text><text/><text transform="rotate(126) translate(181.25,0) rotate(180)"><tspan x="0" y="4" style="font-family: Arial, sans-serif; font-size: 10px; fill: black; font-weight: normal; font-style: italic;">猫の恩返し</tspan></text><text transform="rotate(153) translate(181.25,0) rotate(180)"><tspan x="0" y="4" style="font-family: Arial, sans-serif; font-size: 10px; fill: black; font-weight: normal; font-style: italic;">劇場版 NARUTO-ナルト-疾風伝 ザ・ロストタワー</tspan></text><text transform="rotate(189) translate(181.25,0) rotate(180)"><tspan x="0" y="4" style="font-family: Arial, sans-serif; font-size: 10px; fill: black; font-weight: normal; font-style: italic;">劇場版 NARUTO -ナルト- 疾風伝</tspan></text><text transform="rotate(225) translate(181.25,0) rotate(180)"><tspan x="0" y="4" style="font-family: Arial, sans-serif; font-size: 10px; fill: black; font-weight: normal; font-style: italic;">劇場版ポケットモンスター セレビィ 時を超えた遭遇</tspan></text><text transform="rotate(243) translate(181.25,0) rotate(180)"><tspan x="0" y="4" style="font-family: Arial, sans-serif; font-size: 10px; fill: black; font-weight: normal; font-style: italic;">スーパーマリオブラザーズ ピーチ姫救出大作戦!</tspan></text><text transform="rotate(261) translate(181.25,0) rotate(180)"><tspan x="0" y="4" style="font-family: Arial, sans-serif; font-size: 10px; fill: black; font-weight: normal; font-style: italic;">秒速5センチメートル</tspan></text><text transform="rotate(-81) translate(253.75,0) rotate(0)"><tspan x="0" y="4" style="font-family: Arial, sans-serif; font-size: 10px; fill: black; font-weight: normal; font-style: italic;">1986-06-21T00:00:00Z</tspan></text><text transform="rotate(-63) translate(253.75,0) rotate(0)"><tspan x="0" y="4" style="font-family: Arial, sans-serif; font-size: 10px; fill: black; font-weight: normal; font-style: italic;">2010-12-04T00:00:00Z</tspan></text><text transform="rotate(-45) translate(253.75,0) rotate(0)"><tspan x="0" y="4" style="font-family: Arial, sans-serif; font-size: 10px; fill: black; font-weight: normal; font-style: italic;">2010-12-04T00:00:00Z</tspan></text><text transform="rotate(-27) translate(253.75,0) rotate(0)"><tspan x="0" y="4" style="font-family: Arial, sans-serif; font-size: 10px; fill: black; font-weight: normal; font-style: italic;">2004-09-05T00:00:00Z</tspan></text><text transform="rotate(-9) translate(253.75,0) rotate(0)"><tspan x="0" y="4" style="font-family: Arial, sans-serif; font-size: 10px; fill: black; font-weight: normal; font-style: italic;">2004-11-20T00:00:00Z</tspan></text><text transform="rotate(9.000000000000014) translate(253.75,0) rotate(0)"><tspan x="0" y="4" style="font-family: Arial, sans-serif; font-size: 10px; fill: black; font-weight: normal; font-style: italic;">2005-06-17T00:00:00Z</tspan></text><text transform="rotate(27) translate(253.75,0) rotate(0)"><tspan x="0" y="4" style="font-family: Arial, sans-serif; font-size: 10px; fill: black; font-weight: normal; font-style: italic;">2005-08-25T00:00:00Z</tspan></text><text transform="rotate(45) translate(253.75,0) rotate(0)"><tspan x="0" y="4" style="font-family: Arial, sans-serif; font-size: 10px; fill: black; font-weight: normal; font-style: italic;">1988-04-16T00:00:00Z</tspan></text><text transform="rotate(63) translate(253.75,0) rotate(0)"><tspan x="0" y="4" style="font-family: Arial, sans-serif; font-size: 10px; fill: black; font-weight: normal; font-style: italic;">1990-07-13T00:00:00Z</tspan></text><text transform="rotate(81) translate(253.75,0) rotate(0)"><tspan x="0" y="4" style="font-family: Arial, sans-serif; font-size: 10px; fill: black; font-weight: normal; font-style: italic;">1995-07-29T00:00:00Z</tspan></text><text transform="rotate(99) translate(253.75,0) rotate(180)"><tspan x="0" y="4" style="font-family: Arial, sans-serif; font-size: 10px; fill: black; font-weight: normal; font-style: italic;">2015-11-13T00:00:00Z</tspan></text><text transform="rotate(116.99999999999997) translate(253.75,0) rotate(180)"><tspan x="0" y="4" style="font-family: Arial, sans-serif; font-size: 10px; fill: black; font-weight: normal; font-style: italic;">2002-07-19T00:00:00Z</tspan></text><text transform="rotate(135) translate(253.75,0) rotate(180)"><tspan x="0" y="4" style="font-family: Arial, sans-serif; font-size: 10px; fill: black; font-weight: normal; font-style: italic;">2005-07-13T00:00:00Z</tspan></text><text transform="rotate(153) translate(253.75,0) rotate(180)"><tspan x="0" y="4" style="font-family: Arial, sans-serif; font-size: 10px; fill: black; font-weight: normal; font-style: italic;">2010-07-31T00:00:00Z</tspan></text><text transform="rotate(171) translate(253.75,0) rotate(180)"><tspan x="0" y="4" style="font-family: Arial, sans-serif; font-size: 10px; fill: black; font-weight: normal; font-style: italic;">2007-01-01T00:00:00Z</tspan></text><text transform="rotate(189) translate(253.75,0) rotate(180)"><tspan x="0" y="4" style="font-family: Arial, sans-serif; font-size: 10px; fill: black; font-weight: normal; font-style: italic;">2007-08-04T00:00:00Z</tspan></text><text transform="rotate(207) translate(253.75,0) rotate(180)"><tspan x="0" y="4" style="font-family: Arial, sans-serif; font-size: 10px; fill: black; font-weight: normal; font-style: italic;">2016-06-20T00:00:00Z</tspan></text><text transform="rotate(225) translate(253.75,0) rotate(180)"><tspan x="0" y="4" style="font-family: Arial, sans-serif; font-size: 10px; fill: black; font-weight: normal; font-style: italic;">2001-07-07T00:00:00Z</tspan></text><text transform="rotate(243) translate(253.75,0) rotate(180)"><tspan x="0" y="4" style="font-family: Arial, sans-serif; font-size: 10px; fill: black; font-weight: normal; font-style: italic;">1986-07-20T00:00:00Z</tspan></text><text transform="rotate(261) translate(253.75,0) rotate(180)"><tspan x="0" y="4" style="font-family: Arial, sans-serif; font-size: 10px; fill: black; font-weight: normal; font-style: italic;">2007-03-03T00:00:00Z</tspan></text></g></svg>